<?xml version="1.0" encoding="UTF-8" standalone="no"?>
<svg
   viewBox="0 0 75.872086 75.79065"
   version="1.1"
   id="svg8"
   xml:space="preserve"
   xmlns="http://www.w3.org/2000/svg"
   xmlns:svg="http://www.w3.org/2000/svg"
   xmlns:rdf="http://www.w3.org/1999/02/22-rdf-syntax-ns#"
   xmlns:cc="http://creativecommons.org/ns#"
   xmlns:dc="http://purl.org/dc/elements/1.1/"><defs
     id="defs2" /><metadata
     id="metadata5"><rdf:RDF><cc:Work
         rdf:about=""><dc:format>image/svg+xml</dc:format><dc:type
           rdf:resource="http://purl.org/dc/dcmitype/StillImage" /></cc:Work></rdf:RDF></metadata><g
     id="layer1"
     transform="translate(-57.021846,-125.74626)"
     style="display:inline"><path
       style="fill:#fff;stroke-width:0.264583"
       d="m 130.40526,125.78081 c -0.66779,-0.13676 -2.65501,0.12761 -6.6275,0.88056 -0.76398,0.1448 -2.01415,0.37688 -2.77813,0.51573 -0.76398,0.13885 -2.11753,0.38954 -3.00808,0.55759 l -1.61954,0.30593 -16.570564,16.57831 c -9.114003,9.11827 -16.571082,16.76113 -16.571082,16.98398 0,0.5648 0.534985,1.04025 1.170471,1.04025 0.355026,0 6.063548,-5.51975 16.946255,-16.38557 14.1588,-14.13682 16.5385,-16.40676 17.33744,-16.53697 0.50933,-0.083 2.35479,-0.39652 4.10104,-0.69712 1.74625,-0.3006 3.85548,-0.64848 4.68705,-0.77256 0.83157,-0.12409 1.64022,-0.30494 1.79731,-0.40204 0.15709,-0.0971 0.59227,0.0243 0.96687,0.26975 0.77616,0.50856 0.80058,-6.7e-4 -0.30593,6.34638 -0.38054,2.18281 -0.78858,4.54718 -0.90692,5.25394 -0.21267,1.27014 -0.40529,1.47501 -16.65428,17.73174 -9.04156,9.04586 -16.439306,16.62937 -16.439306,16.8522 0,0.22283 0.142668,0.54832 0.317293,0.72295 0.174625,0.17462 0.562179,0.3173 0.86093,0.3173 0.365905,0 5.955373,-5.41856 17.126083,-16.60261 l 16.58245,-16.6026 0.24702,-1.5875 c 0.13579,-0.87313 0.63765,-3.8632 1.11517,-6.64456 0.47752,-2.78135 0.79165,-5.36154 0.69815,-5.73402 -0.22964,-0.91497 -1.56308,-2.20487 -2.4722,-2.39106 z m -58.319952,33.42276 c -1.405714,0 -2.535075,0.71137 -4.520654,2.84737 -2.087124,2.24525 -2.049192,3.42041 0.217041,6.7076 0.841313,1.22033 2.459035,3.56501 3.594612,5.21002 1.135577,1.64502 2.064474,3.07563 2.064474,3.17914 0,0.1035 -1.405627,1.59045 -3.123841,3.30419 l -3.124357,3.11557 -2.044319,-0.97048 c -2.927982,-1.39049 -3.657747,-1.25255 -6.059062,1.14876 -2.051504,2.0515 -2.48123,3.24044 -1.706356,4.71754 0.222356,0.42386 3.192483,3.53872 6.600631,6.92206 l 6.197038,6.15157 h 1.391129 c 1.356168,0 1.437292,-0.0444 3.20859,-1.75442 2.66174,-2.5697 2.834298,-3.58103 1.131714,-6.63112 -0.340556,-0.61009 -0.619084,-1.26669 -0.619084,-1.45934 0,-0.19265 1.358283,-1.70458 3.01842,-3.36 2.178323,-2.17215 3.139656,-2.96336 3.454053,-2.84272 0.239606,0.0919 2.638925,1.6624 5.331458,3.48971 2.692532,1.82729 5.214531,3.44363 5.604826,3.59202 1.619766,0.61584 3.497559,-0.51406 5.915917,-3.55947 1.107042,-1.39407 1.278802,-2.35232 0.638204,-3.56102 -0.208264,-0.39296 -6.134331,-6.45946 -13.169222,-13.48083 L 73.29557,159.20357 Z m -0.204639,2.11667 c 0.493532,0 3.522803,2.88394 13.13925,12.50828 6.873783,6.87942 12.497945,12.70629 12.497945,12.94908 0,0.2428 -0.667592,1.1629 -1.48363,2.04432 -1.175294,1.26945 -1.647572,1.60249 -2.271696,1.60249 -0.578983,0 -2.341789,-1.05325 -6.647657,-3.97237 l -5.85959,-3.97237 -4.337203,4.33669 -4.336686,4.3372 1.090889,2.30735 c 0.600199,1.26892 1.091406,2.50579 1.091406,2.74867 0,0.24289 -0.545168,1.06477 -1.211295,1.82625 -0.666128,0.76149 -1.422474,1.38441 -1.681035,1.38441 -0.519871,0 -12.718086,-11.76849 -12.718086,-12.27005 0,-0.41563 2.964987,-3.34037 3.386356,-3.34037 0.180589,0 1.377622,0.52731 2.660303,1.17151 l 2.332157,1.17098 4.333069,-4.33875 4.333069,-4.33875 -4.02456,-5.9893 c -2.213449,-3.29397 -4.024561,-6.23325 -4.024561,-6.5319 0,-0.78687 2.923373,-3.63337 3.731555,-3.63337 z" /></g><g
     transform="translate(-118.25398,-134.81769)" /></svg>
